<!DOCTYPE svg PUBLIC "-//W3C//DTD SVG 20010904//EN" "http://www.w3.org/TR/2001/REC-SVG-20010904/DTD/svg10.dtd">
<svg version="1.0" xmlns="http://www.w3.org/2000/svg" width="412px" height="200px" viewBox="0 0 4120 2000" preserveAspectRatio="xMidYMid meet">
<g id="layer101" fill="transparent" stroke="none">
<path d="M0 1000 l0 -1000 2060 0 2060 0 0 1000 0 1000 -2060 0 -2060 0 0 -1000z"/>
</g>
<g id="layer102" fill="white" stroke="none">
<path d="M3820 1989 c0 -9 -13 -40 -30 -70 -16 -30 -30 -67 -31 -84 -1 -31 -3 -28 -13 18 -4 15 -11 25 -16 22 -17 -10 -43 -153 -34 -193 l7 -37 8 44 c5 24 11 46 13 49 3 2 16 -9 30 -24 l25 -29 1 35 c0 19 10 52 23 73 l23 37 12 -46 c13 -49 45 -98 56 -87 3 3 6 17 6 30 0 14 4 21 10 18 6 -3 10 -27 11 -53 0 -35 3 -42 9 -27 14 33 11 96 -8 165 l-19 65 -16 -30 -16 -30 -1 57 c0 46 -5 62 -25 85 -17 20 -24 23 -25 12z"/>
<path d="M3816 1751 c-3 -5 1 -11 9 -14 9 -4 12 -1 8 9 -6 16 -10 17 -17 5z"/>
<path d="M3805 1720 c-8 -13 3 -30 18 -29 9 0 9 2 0 5 -7 3 -9 12 -6 20 6 16 -3 19 -12 4z"/>
<path d="M3745 1680 c3 -5 8 -10 11 -10 2 0 4 5 4 10 0 6 -5 10 -11 10 -5 0 -7 -4 -4 -10z"/>
<path d="M1890 1630 c-32 -8 -48 -56 -42 -132 5 -79 22 -73 22 8 0 77 12 104 45 104 33 0 45 -27 45 -104 0 -52 3 -66 15 -66 12 0 15 14 15 65 0 35 -5 75 -11 89 -14 29 -53 45 -89 36z"/>
<path d="M2972 1625 c-86 -37 -56 -185 38 -185 52 0 80 33 82 94 1 76 -55 119 -120 91z m77 -28 c28 -35 21 -107 -13 -129 -57 -38 -113 59 -70 120 17 25 65 30 83 9z"/>
<path d="M3806 1623 c-3 -10 -6 -113 -8 -230 -2 -158 0 -215 9 -224 7 -7 16 -9 20 -6 12 13 16 124 8 302 -6 159 -15 205 -29 158z"/>
<path d="M1660 1535 c0 -78 3 -95 15 -95 11 0 15 11 15 40 l0 40 40 0 40 0 0 -40 c0 -29 4 -40 15 -40 12 0 15 17 15 96 0 72 -3 95 -12 91 -8 -2 -13 -20 -13 -43 0 -39 0 -39 -42 -42 l-43 -3 0 45 c0 34 -4 46 -15 46 -12 0 -15 -17 -15 -95z"/>
<path d="M2030 1534 c0 -84 2 -95 17 -92 9 2 35 34 57 71 l41 69 3 -71 c4 -106 22 -87 22 24 0 116 -10 121 -65 31 -22 -36 -43 -62 -48 -59 -5 3 -7 32 -5 64 3 44 1 59 -9 59 -10 0 -13 -24 -13 -96z"/>
<path d="M2250 1545 c0 -84 0 -85 -25 -85 -14 0 -25 -4 -25 -10 0 -6 30 -10 70 -10 40 0 70 4 70 10 0 6 -13 10 -30 10 l-30 0 0 85 c0 69 -3 85 -15 85 -12 0 -15 -16 -15 -85z"/>
<path d="M2360 1536 c0 -99 14 -129 25 -53 9 60 2 140 -12 145 -10 3 -13 -20 -13 -92z"/>
<path d="M2430 1535 c0 -119 11 -122 71 -23 l44 73 3 -73 c4 -107 22 -88 22 23 0 119 -11 122 -71 23 l-44 -73 -3 73 c-4 107 -22 88 -22 -23z"/>
<path d="M2637 1610 c-51 -40 -41 -131 18 -158 35 -16 95 -16 95 1 0 9 -11 12 -34 9 -27 -3 -40 2 -60 22 -31 30 -33 64 -5 100 19 24 66 36 81 21 13 -13 -5 -55 -23 -55 -11 0 -19 -4 -19 -10 0 -5 16 -10 35 -10 l35 0 0 50 0 50 -49 0 c-33 0 -56 -6 -74 -20z"/>
<path d="M2836 1558 c1 -89 -2 -98 -32 -98 -13 0 -24 -4 -24 -10 0 -6 30 -10 70 -10 40 0 70 4 70 10 0 6 -13 10 -30 10 l-30 0 0 85 c0 61 -3 85 -12 85 -9 0 -13 -21 -12 -72z"/>
<path d="M3130 1534 c0 -117 9 -120 74 -19 l46 70 0 -72 c0 -42 4 -73 10 -73 6 0 10 38 10 95 0 114 -10 121 -61 39 -60 -98 -58 -97 -59 -16 0 41 -4 72 -10 72 -6 0 -10 -39 -10 -96z"/>
<path d="M3500 1623 c0 -5 7 -86 15 -182 l14 -174 37 -38 c21 -21 39 -37 41 -35 2 2 12 39 23 82 10 44 33 124 50 178 17 55 27 103 23 107 -9 8 -180 69 -194 69 -5 0 -9 -3 -9 -7z"/>
<path d="M4018 1597 c-48 -18 -89 -35 -92 -38 -3 -3 7 -43 23 -90 15 -46 39 -128 51 -181 13 -54 27 -98 30 -98 3 0 21 16 40 35 30 31 35 44 42 108 9 96 10 297 1 296 -5 0 -47 -15 -95 -32z"/>
<path d="M3761 1571 c-21 -5 -30 -24 -63 -121 -119 -357 -138 -701 -54 -990 l16 -55 157 1 158 1 29 109 c28 104 29 119 30 324 1 241 -13 335 -80 557 -42 139 -56 169 -85 176 l-22 6 7 -185 c5 -150 4 -191 -8 -219 -18 -42 -38 -45 -55 -8 -14 30 -16 210 -5 341 4 39 5 72 3 71 -2 -1 -15 -4 -28 -8z m-86 -523 c-5 -40 -11 -134 -15 -208 l-7 -135 -1 125 c-2 153 8 290 20 290 6 0 7 -28 3 -72z m299 25 c3 -27 8 -101 12 -167 5 -89 3 -117 -6 -111 -6 4 -9 12 -7 19 5 12 -9 209 -19 269 -3 22 -2 37 4 37 6 0 13 -21 16 -47z m-110 -345 c21 -30 20 -54 -4 -78 -41 -41 -103 -16 -103 40 0 58 75 84 107 38z m-20 -177 c25 -28 5 -63 -32 -59 -34 4 -44 45 -16 65 23 17 28 17 48 -6z"/>
<path d="M404 1313 c-38 -7 -76 -58 -81 -105 -8 -84 51 -144 153 -156 34 -4 44 -9 44 -23 0 -22 -38 -34 -83 -25 -67 12 -70 12 -79 -17 -15 -41 -5 -53 52 -67 64 -15 149 -8 185 16 46 30 58 74 61 232 l3 142 -55 0 c-39 0 -56 -4 -60 -15 -5 -12 -9 -12 -27 0 -25 15 -82 25 -113 18z m104 -99 c15 -11 22 -25 22 -50 0 -30 -3 -34 -25 -34 -27 0 -65 32 -65 54 0 15 26 46 38 46 4 0 18 -7 30 -16z"/>
<path d="M763 1306 c-56 -26 -67 -62 -71 -234 l-4 -153 61 3 61 3 5 123 c5 136 14 162 50 162 37 0 45 -28 45 -164 l0 -126 65 0 65 0 0 195 0 195 -54 0 c-48 0 -55 -3 -58 -21 l-3 -21 -26 21 c-35 27 -96 35 -136 17z"/>
<path d="M1610 1310 c-85 -25 -128 -76 -137 -162 -15 -148 84 -249 230 -235 26 2 49 6 52 8 2 2 -1 25 -6 50 l-10 46 -42 -4 c-62 -7 -89 18 -95 89 -4 47 -1 58 21 83 22 26 31 29 76 28 l51 -2 0 49 c0 48 -1 50 -27 51 -16 0 -41 2 -58 4 -16 1 -41 0 -55 -5z"/>
<path d="M0 1040 l0 -270 60 0 60 0 0 215 0 215 90 0 90 0 0 55 0 55 -150 0 -150 0 0 -270z"/>
<path d="M1090 1115 l0 -195 55 0 c48 0 55 2 55 20 0 18 2 18 36 -5 64 -44 147 -26 181 38 14 25 18 65 21 185 l4 152 -66 0 -66 0 0 -129 c0 -109 -3 -132 -18 -151 -13 -16 -24 -21 -40 -16 -31 10 -43 68 -41 189 l2 102 -62 3 -61 3 0 -196z"/>
<path d="M1800 1030 l0 -280 60 0 60 0 0 100 0 100 33 -20 c57 -35 130 -22 164 29 15 22 19 53 21 189 l4 162 -60 0 -60 0 -4 -136 c-3 -120 -5 -137 -22 -150 -26 -18 -32 -18 -56 6 -18 18 -20 33 -20 150 l0 130 -60 0 -60 0 0 -280z"/>
<path d="M3722 383 c-18 -3 -35 -10 -38 -18 -6 -15 46 -124 81 -171 18 -24 30 -30 55 -29 17 1 37 10 45 21 31 40 95 178 87 186 -9 9 -177 17 -230 11z"/>
<path d="M3801 108 c0 -18 4 -51 8 -73 l7 -40 8 50 c4 28 10 60 13 73 4 17 1 22 -16 22 -17 0 -21 -6 -20 -32z"/>
</g>
<g id="layer103" fill="white" stroke="none">
<path d="M2625 1313 c-43 -11 -85 -70 -85 -118 0 -74 61 -131 150 -142 57 -7 67 -15 44 -37 -18 -18 -70 -21 -110 -6 -32 13 -41 6 -50 -36 -5 -29 -3 -32 35 -48 56 -22 147 -21 191 2 57 30 69 67 74 235 l5 147 -55 0 c-39 0 -56 -4 -60 -15 -5 -12 -9 -12 -27 0 -26 16 -83 25 -112 18z m103 -99 c15 -11 22 -25 22 -50 0 -30 -3 -34 -25 -34 -27 0 -65 32 -65 54 0 15 26 46 38 46 4 0 18 -7 30 -16z"/>
<path d="M3005 1306 c-64 -29 -94 -92 -95 -196 -1 -145 108 -240 213 -186 l27 15 0 -95 0 -94 60 0 60 0 2 260 c1 143 2 268 2 278 1 14 -9 18 -51 20 -44 3 -52 0 -58 -17 l-6 -21 -27 20 c-36 27 -90 34 -127 16z m135 -122 c17 -43 12 -129 -8 -154 -23 -28 -65 -22 -83 12 -19 35 -15 125 6 148 27 30 73 26 85 -6z"/>
<path d="M2190 1303 c-1 -5 -1 -123 -1 -262 1 -225 2 -256 17 -264 27 -15 225 -3 261 16 88 47 103 209 26 279 -27 24 -98 48 -144 48 l-39 0 0 95 0 95 -60 0 c-33 0 -60 -3 -60 -7z m204 -304 c55 -43 23 -129 -49 -129 l-35 0 0 75 0 75 29 0 c15 0 40 -9 55 -21z"/>
</g>
<g id="layer104" fill="white" stroke="none">
<path d="M2625 1313 c-43 -11 -85 -70 -85 -118 0 -74 61 -131 150 -142 58 -7 67 -15 43 -38 -12 -13 -28 -16 -62 -12 -25 2 -54 8 -63 12 -23 9 -41 -33 -24 -54 8 -11 8 -13 -1 -7 -7 4 -13 3 -13 -2 0 -18 80 -42 136 -42 63 0 118 22 140 55 19 29 23 62 28 218 l5 127 -38 0 c-20 0 -43 -6 -50 -12 -11 -10 -13 -10 -7 0 4 6 2 12 -4 12 -6 0 -13 -7 -16 -15 -5 -12 -9 -12 -27 0 -26 16 -83 25 -112 18z m103 -99 c15 -11 22 -25 22 -50 0 -29 -3 -34 -23 -34 -26 0 -50 16 -65 45 -8 15 -6 23 10 37 26 22 28 22 56 2z"/>
<path d="M3005 1306 c-63 -28 -94 -92 -95 -196 -1 -146 108 -240 214 -185 15 8 29 15 30 15 0 0 0 -43 -2 -95 l-3 -95 60 0 61 0 2 260 c1 143 2 268 2 278 1 14 -8 17 -51 18 -44 2 -53 -1 -59 -18 -4 -14 -9 -16 -18 -9 -7 6 -17 7 -21 3 -5 -4 -5 -2 -2 5 4 7 -5 15 -25 22 -39 14 -56 13 -93 -3z m135 -122 c17 -43 12 -129 -7 -152 -20 -22 -79 -37 -88 -22 -4 6 1 7 11 3 15 -6 15 -4 -1 21 -24 37 -24 129 0 156 27 30 73 26 85 -6z"/>
<path d="M2190 1303 c-1 -5 -1 -123 -1 -262 1 -225 2 -256 17 -264 9 -5 64 -7 123 -5 114 4 178 25 167 54 -3 8 -2 12 4 9 18 -11 40 41 41 101 2 63 -13 105 -48 136 -27 24 -98 48 -144 48 l-39 0 0 95 0 95 -60 0 c-33 0 -60 -3 -60 -7z m197 -298 c21 -15 61 -81 42 -70 -5 4 -9 -1 -9 -9 0 -28 -38 -56 -75 -56 l-35 0 0 75 0 75 28 0 c15 0 37 -7 49 -15z m-90 -152 c-4 -3 -7 0 -7 7 0 7 3 10 7 7 3 -4 3 -10 0 -14z"/>
</g>
<g id="layer105" fill="white" stroke="none">
<path d="M2624 1311 c-32 -14 -86 -81 -76 -94 5 -7 6 -21 3 -31 -8 -20 8 -66 22 -66 4 0 7 -6 7 -12 1 -18 69 -47 121 -52 24 -2 47 -4 51 -5 3 -1 0 -13 -7 -28 -12 -24 -20 -28 -52 -27 -21 0 -52 4 -68 8 -27 6 -32 3 -42 -23 -12 -33 -2 -51 28 -51 10 0 20 -4 23 -8 7 -12 120 -14 149 -3 35 14 75 70 83 117 4 21 6 80 6 129 -2 151 -1 145 -33 145 -15 0 -31 -4 -34 -10 -9 -15 -27 -12 -20 3 4 6 -2 2 -13 -10 -19 -21 -19 -21 -38 -3 -22 22 -81 33 -110 21z m121 -110 c11 -23 12 -36 5 -56 -9 -23 -14 -26 -38 -20 -15 4 -32 8 -39 8 -7 0 -10 4 -7 9 3 4 1 8 -5 8 -6 0 -8 6 -5 14 3 8 1 24 -5 35 -10 17 -9 20 4 15 8 -4 15 -1 15 5 0 6 13 11 30 11 23 0 33 -7 45 -29z m-111 -99 c3 -5 -1 -9 -9 -9 -8 0 -15 4 -15 9 0 4 4 8 9 8 6 0 12 -4 15 -8z m7 -159 c13 -16 12 -17 -3 -4 -10 7 -18 15 -18 17 0 8 8 3 21 -13z"/>
<path d="M3027 1306 c-3 -9 -12 -14 -19 -11 -26 9 -84 -64 -74 -91 3 -8 2 -12 -3 -9 -25 15 -28 -133 -4 -170 7 -11 13 -28 13 -38 0 -9 7 -20 16 -24 9 -3 28 -17 42 -29 21 -20 28 -22 40 -12 13 11 14 11 7 -1 -7 -11 -2 -13 25 -8 18 4 39 7 47 7 10 0 14 7 10 20 -4 16 -2 18 11 11 10 -4 24 -6 32 -4 10 3 9 0 -2 -7 -15 -9 -18 -26 -18 -99 l0 -88 60 -2 60 -2 0 266 c0 157 -4 264 -9 261 -5 -4 -7 3 -4 14 5 18 1 20 -41 19 -37 -2 -46 -6 -46 -20 0 -29 -16 -30 -43 -3 -31 31 -91 43 -100 20z m140 -93 c-4 -3 -7 0 -7 7 0 7 3 10 7 7 3 -4 3 -10 0 -14z m-28 -25 c15 -43 14 -153 -1 -166 -7 -5 -31 -12 -53 -14 -34 -2 -40 0 -37 15 2 10 -2 25 -8 32 -7 8 -9 18 -6 24 3 5 2 21 -4 35 -5 14 -5 28 -1 31 5 2 12 17 16 32 8 33 17 40 55 41 23 0 31 -5 39 -30z"/>
<path d="M2195 1300 c-10 -16 -5 -502 5 -515 14 -17 204 -19 221 -2 8 7 20 12 28 9 15 -5 83 66 76 79 -3 4 -1 9 4 11 16 5 15 91 -2 128 -24 54 -54 83 -77 77 -11 -3 -18 -2 -15 3 7 11 -21 21 -39 14 -8 -3 -17 -1 -21 5 -3 6 -19 11 -36 11 l-29 0 0 95 0 95 -54 0 c-30 0 -58 -5 -61 -10z m92 -17 c-4 -3 -7 0 -7 7 0 7 3 10 7 7 3 -4 3 -10 0 -14z m-20 -265 c-3 -8 -6 -5 -6 6 -1 11 2 17 5 13 3 -3 4 -12 1 -19z m134 -13 c9 -6 21 -24 26 -41 9 -26 8 -37 -7 -62 -21 -34 -39 -42 -87 -38 -18 2 -33 -2 -33 -7 0 -6 -3 -7 -6 -4 -4 4 -1 13 6 22 8 10 11 38 8 88 l-4 73 40 -11 c23 -6 48 -15 57 -20z"/>
</g>
<g id="layer106" fill="white" stroke="none">
<path d="M3835 1970 c3 -5 8 -10 11 -10 3 0 2 5 -1 10 -3 6 -8 10 -11 10 -3 0 -2 -4 1 -10z"/>
<path d="M1945 1610 c3 -5 8 -10 11 -10 3 0 2 5 -1 10 -3 6 -8 10 -11 10 -3 0 -2 -4 1 -10z"/>
<path d="M3045 1610 c3 -5 8 -10 11 -10 3 0 2 5 -1 10 -3 6 -8 10 -11 10 -3 0 -2 -4 1 -10z"/>
<path d="M455 1130 c3 -5 8 -10 11 -10 3 0 2 5 -1 10 -3 6 -8 10 -11 10 -3 0 -2 -4 1 -10z"/>
</g>
<g id="layer107" fill="white" stroke="none">
<path d="M2605 1300 c-3 -6 1 -7 9 -4 18 7 21 14 7 14 -6 0 -13 -4 -16 -10z"/>
<path d="M3083 1303 c4 -3 10 -3 14 0 3 4 0 7 -7 7 -7 0 -10 -3 -7 -7z"/>
<path d="M3173 1303 c4 -3 10 -3 14 0 3 4 0 7 -7 7 -7 0 -10 -3 -7 -7z"/>
<path d="M2984 1288 c-4 -7 -3 -8 4 -4 12 7 16 16 8 16 -3 0 -8 -5 -12 -12z"/>
<path d="M2570 1265 c-7 -9 -8 -15 -2 -15 5 0 12 7 16 15 3 8 4 15 2 15 -2 0 -9 -7 -16 -15z"/>
<path d="M2690 1240 c0 -7 3 -10 7 -7 3 4 3 10 0 14 -4 3 -7 0 -7 -7z"/>
<path d="M2735 1220 c3 -5 8 -10 11 -10 3 0 2 5 -1 10 -3 6 -8 10 -11 10 -3 0 -2 -4 1 -10z"/>
<path d="M2660 1146 c0 -2 8 -10 18 -17 15 -13 16 -12 3 4 -13 16 -21 21 -21 13z"/>
<path d="M2294 1018 c-4 -7 -3 -8 4 -4 12 7 16 16 8 16 -3 0 -8 -5 -12 -12z"/>
<path d="M3078 1003 c6 -2 18 -2 25 0 6 3 1 5 -13 5 -14 0 -19 -2 -12 -5z"/>
<path d="M2598 973 c7 -3 16 -2 19 1 4 3 -2 6 -13 5 -11 0 -14 -3 -6 -6z"/>
<path d="M2461 944 c0 -11 3 -14 6 -6 3 7 2 16 -1 19 -3 4 -6 -2 -5 -13z"/>
<path d="M2296 867 c3 -10 9 -15 12 -12 3 3 0 11 -7 18 -10 9 -11 8 -5 -6z"/>
<path d="M2195 790 c3 -5 8 -10 11 -10 3 0 2 5 -1 10 -3 6 -8 10 -11 10 -3 0 -2 -4 1 -10z"/>
</g>
<g id="layer108" fill="white" stroke="none">
<path d="M2665 1140 c3 -5 8 -10 11 -10 3 0 2 5 -1 10 -3 6 -8 10 -11 10 -3 0 -2 -4 1 -10z"/>
<path d="M3044 1008 c-4 -7 -3 -8 4 -4 12 7 16 16 8 16 -3 0 -8 -5 -12 -12z"/>
</g>


</svg>