<?xml version="1.0" encoding="UTF-8" standalone="no"?>
<!DOCTYPE svg PUBLIC "-//W3C//DTD SVG 1.1//EN" "http://www.w3.org/Graphics/SVG/1.1/DTD/svg11.dtd">
<svg width="100%" height="100%" viewBox="0 0 412 200" version="1.1" xmlns="http://www.w3.org/2000/svg" xmlns:xlink="http://www.w3.org/1999/xlink" xml:space="preserve" xmlns:serif="http://www.serif.com/" style="fill-rule:evenodd;clip-rule:evenodd;stroke-linejoin:round;stroke-miterlimit:2;">
    <g transform="matrix(0.819444,0,0,0.819444,206,100)">
        <g transform="matrix(1,0,0,1,-192.5,-33.5)">
            <g>
                <path d="M193.6,12.3L193.6,1.8L149.5,1.8L149.5,65.1L193.6,65.1L193.6,54.6L160.1,54.6L160.1,38.7L191.9,38.7L191.9,28.2L160.1,28.2L160.1,12.3L193.6,12.3Z" style="fill:white;fill-rule:nonzero;"/>
                <path d="M226.2,65.1L226.2,1.8L236.8,1.8L236.8,54.6L267.3,54.6L267.3,65.1L226.2,65.1Z" style="fill:white;fill-rule:nonzero;"/>
                <path d="M275.9,65.1L275.9,1.8L286.4,1.8L286.4,54.6L316.9,54.6L316.9,65.1L275.9,65.1Z" style="fill:white;fill-rule:nonzero;"/>
                <rect x="204.6" y="1.8" width="10.6" height="63.3" style="fill:white;"/>
                <path d="M17.7,17.9C13.6,22 11.1,27.6 11.1,33.8C11.1,40 13.6,45.6 17.7,49.7C21.8,53.8 27.4,56.3 33.6,56.3C39.8,56.3 45.4,53.8 49.5,49.7C53.5,45.5 56,40 56,33.8C56,27.6 53.5,22 49.4,17.9C45.3,13.8 39.7,11.3 33.5,11.3C27.3,11.3 21.8,13.8 17.7,17.9M0.6,33.8C0.6,15.6 15.4,0.8 33.6,0.8C51.8,0.8 66.6,15.6 66.6,33.8C66.6,52 51.8,66.8 33.6,66.8C15.3,66.7 0.6,52 0.6,33.8M99.2,28.2L99.2,12.3L120.5,12.3C124.9,12.3 128.4,15.8 128.4,20.2C128.4,24.6 124.9,28.1 120.5,28.1L99.2,28.1L99.2,28.2ZM125.7,38C133.3,35.7 138.9,28.7 138.9,20.3C138.9,10.1 130.6,1.8 120.4,1.8L88.6,1.8L88.6,65.1L99.2,65.1L99.2,38.7L113.9,38.7L129.8,65.1L142.1,65.1L125.7,38ZM81.1,8.5C81.1,12.8 77.6,16.3 73.3,16.3C69,16.3 65.5,12.8 65.5,8.5C65.5,4.2 69,0.7 73.3,0.7C77.7,0.8 81.1,4.2 81.1,8.5" style="fill:white;fill-rule:nonzero;"/>
                <path d="M363.9,1.8L351.1,1.8L334.9,25.3L318.6,1.8L305.8,1.8L329.6,36.2L329.6,65.1L340.1,65.1L340.1,36.3L363.9,1.8Z" style="fill:white;fill-rule:nonzero;"/>
                <g transform="matrix(1,0,0,1,368,0)">
                    <path d="M8.4,14.8C4.8,14.8 1.8,11.9 1.8,8.2C1.8,4.6 4.7,1.6 8.4,1.6C12,1.6 15,4.5 15,8.2C15,11.8 12.1,14.8 8.4,14.8M8.4,0.4C4.1,0.4 0.6,3.9 0.6,8.2C0.6,12.5 4.1,16 8.4,16C12.7,16 16.2,12.5 16.2,8.2C16.2,3.9 12.7,0.4 8.4,0.4" style="fill:white;fill-rule:nonzero;"/>
                    <path d="M6.5,5.5L9.6,5.5C10.2,5.5 10.6,5.9 10.6,6.5C10.6,7.1 10.2,7.5 9.6,7.5L6.5,7.5L6.5,5.5ZM11.9,6.5C11.9,5.2 10.9,4.2 9.6,4.2L5.2,4.2L5.2,12.2L6.5,12.2L6.5,8.9L8.7,8.9L10.3,12.2L11.8,12.2L10.2,8.8C11.2,8.5 11.9,7.6 11.9,6.5Z" style="fill:white;fill-rule:nonzero;"/>
                </g>
            </g>
        </g>
    </g>
</svg>
